<?xml version="1.0" standalone="no"?><!DOCTYPE svg PUBLIC "-//W3C//DTD SVG 1.1//EN" "http://www.w3.org/Graphics/SVG/1.1/DTD/svg11.dtd"><svg t="1766149675064" class="icon" viewBox="0 0 1025 1024" version="1.1" xmlns="http://www.w3.org/2000/svg" p-id="3643" xmlns:xlink="http://www.w3.org/1999/xlink" width="200.1953125" height="200"><path d="M884.5 59c44.459 0 80.5 36.041 80.5 80.5v745c0 44.459-36.041 80.5-80.5 80.5h-745C95.041 965 59 928.959 59 884.5v-745C59 95.041 95.041 59 139.5 59h745zM625.288 591.11c-9.75-9.26-25.16-9.108-34.723 0.455-9.717 9.718-9.717 25.473 0 35.19l203.477 203.477-168.298 0.002-0.587 0.007c-13.471 0.312-24.296 11.33-24.296 24.876 0 13.743 11.14 24.883 24.883 24.883H879V627.6l-0.007-0.587c-0.312-13.471-11.33-24.295-24.876-24.295l-0.587 0.006c-13.471 0.312-24.296 11.33-24.296 24.876v167.444l-203.48-203.479z m-187.304-3.338c-9.737-9.697-25.492-9.664-35.19 0.074L193.767 797.755V627.15l-0.007-0.588c-0.312-13.47-11.33-24.295-24.876-24.295-13.743 0-24.883 11.14-24.883 24.883V880h253.532l0.587-0.007c13.471-0.312 24.295-11.33 24.295-24.876l-0.006-0.587c-0.312-13.471-11.33-24.296-24.876-24.296l-165.876-0.002 206.403-207.27 0.454-0.469c9.239-9.768 9.055-25.178-0.529-34.721zM879 145H625.902l-0.588 0.007c-13.47 0.312-24.295 11.33-24.295 24.876l0.007 0.587c0.312 13.471 11.33 24.296 24.876 24.296l168.32-0.002-199.435 200.28-0.455 0.468c-9.239 9.768-9.055 25.179 0.529 34.722 9.737 9.696 25.492 9.663 35.19-0.075l199.183-200.025v168.25l0.007 0.587c0.312 13.471 11.33 24.296 24.876 24.296 13.743 0 24.883-11.14 24.883-24.883V145z m-481.496 0H144v252.957l0.007 0.588c0.312 13.47 11.33 24.295 24.876 24.295l0.587-0.007c13.471-0.312 24.296-11.33 24.296-24.876V229.956L393.482 429.67l0.467 0.456c9.749 9.26 25.16 9.107 34.722-0.456 9.718-9.717 9.718-25.472 0-35.19L228.954 194.765l168.55 0.002 0.587-0.007c13.471-0.312 24.296-11.33 24.296-24.876 0-13.743-11.14-24.883-24.883-24.883z" fill="#333333" p-id="3644"></path></svg>