<?xml version="1.0" standalone="no"?><!DOCTYPE svg PUBLIC "-//W3C//DTD SVG 1.1//EN" "http://www.w3.org/Graphics/SVG/1.1/DTD/svg11.dtd"><svg t="1766149543164" class="icon" viewBox="0 0 1025 1024" version="1.1" xmlns="http://www.w3.org/2000/svg" p-id="15597" xmlns:xlink="http://www.w3.org/1999/xlink" width="200.1953125" height="200"><path d="M884.5 59c44.459 0 80.5 36.041 80.5 80.5v745c0 44.459-36.041 80.5-80.5 80.5h-745C95.041 965 59 928.959 59 884.5v-745C59 95.041 95.041 59 139.5 59h745z m-52.752 520.492H578.492v252.4l0.007 0.587c0.312 13.471 11.33 24.296 24.876 24.296l0.587-0.007c13.471-0.312 24.296-11.33 24.296-24.876l-0.003-167.448 208.267 208.268 0.468 0.455c9.748 9.26 25.159 9.108 34.722-0.455 9.717-9.717 9.717-25.472 0-35.19L663.446 629.257h168.302l0.587-0.006c13.471-0.312 24.296-11.33 24.296-24.876 0-13.742-11.14-24.883-24.883-24.883z m-382.537 0H195.68l-0.588 0.007c-13.47 0.312-24.295 11.33-24.295 24.876l0.007 0.587c0.312 13.471 11.33 24.296 24.876 24.296l165.877-0.001L162.893 828.76l-0.454 0.468c-9.239 9.769-9.055 25.179 0.528 34.722 9.738 9.697 25.493 9.663 35.19-0.074l201.288-202.139v170.605l0.008 0.587c0.312 13.471 11.33 24.295 24.876 24.295 13.742 0 24.882-11.14 24.882-24.882v-252.85z m422.464-427.241c-9.738-9.697-25.493-9.664-35.19 0.074l-208.23 209.108 0.003-172.41-0.007-0.587c-0.312-13.471-11.33-24.295-24.876-24.295-13.742 0-24.883 11.14-24.883 24.882v253.384h253.099l0.587-0.007c13.471-0.312 24.295-11.33 24.295-24.876l-0.006-0.587c-0.312-13.471-11.33-24.295-24.876-24.295l-164.181-0.001 204.339-205.2 0.454-0.469c9.24-9.768 9.055-25.178-0.528-34.721z m-686.14-0.86c-9.769-8.81-24.838-8.512-34.247 0.897-9.717 9.717-9.717 25.472 0 35.19l204.736 204.736-160.344 0.001-0.588 0.007c-13.47 0.312-24.295 11.33-24.295 24.876 0 13.742 11.14 24.883 24.883 24.883h253.503V189.023l-0.006-0.587c-0.312-13.471-11.33-24.295-24.876-24.295l-0.588 0.006c-13.47 0.312-24.295 11.33-24.295 24.876l-0.002 176.203-212.938-212.938-0.468-0.455z" fill="#333333" p-id="15598"></path></svg>